<svg width="16" height="21" viewBox="0 0 16 21" fill="none" xmlns="http://www.w3.org/2000/svg">
<path d="M8.00001 3.5329C5.39866 3.5329 3.28223 5.48846 3.28223 7.89216C3.28223 10.2959 5.39866 12.2514 8.00001 12.2514C10.6014 12.2514 12.7178 10.2959 12.7178 7.89216C12.7178 5.48846 10.6014 3.5329 8.00001 3.5329ZM8.00001 11.0788C6.09836 11.0788 4.55117 9.64925 4.55117 7.89209C4.55117 6.13492 6.09836 4.70544 8.00001 4.70544C9.90165 4.70544 11.4488 6.135 11.4488 7.89216C11.4488 9.64933 9.90174 11.0788 8.00001 11.0788Z" fill="black"/>
<path d="M7.99996 0.5C3.58876 0.5 0 3.8161 0 7.89216C0 10.2429 2.13353 13.7451 3.40527 15.6234C4.24201 16.8592 5.14119 18.0353 5.93707 18.9351C7.21456 20.3792 7.67181 20.5 8.00004 20.5C8.33318 20.5 8.76488 20.3791 10.0384 18.9342C10.8361 18.0291 11.7357 16.8536 12.5716 15.6243C13.852 13.7414 16 10.2329 16 7.89208C16 3.8161 12.4112 0.5 7.99996 0.5ZM11.6918 14.7114C10.051 17.1724 8.54459 18.8354 7.99243 19.2599C7.43739 18.8484 5.95543 17.225 4.29167 14.7191C2.37073 11.8257 1.26903 9.33735 1.26903 7.89216C1.26895 4.46264 4.28845 1.67254 7.99996 1.67254C11.7115 1.67254 14.731 4.46264 14.731 7.89216C14.7311 9.32906 13.6233 11.8145 11.6918 14.7114Z" fill="black"/>
</svg>
