<svg width="80" height="40" viewBox="0 0 80 40" fill="none" xmlns="http://www.w3.org/2000/svg">
<path d="M17.111 21.5174H16.1833C16.2405 20.681 16.2692 20.0107 16.2692 19.5067C16.2692 17.9946 15.9313 16.9437 15.2556 16.3539C14.5913 15.7534 13.7495 15.4531 12.7301 15.4531C11.3672 15.4531 9.95275 15.9732 8.48676 17.0134C7.02076 18.0429 5.76092 19.6568 4.70723 21.8552C3.65354 24.0429 3.1267 26.2949 3.1267 28.6113C3.1267 30.8525 3.61346 32.5737 4.58698 33.7748C5.57195 34.9651 6.80315 35.5603 8.2806 35.5603C10.2849 35.5603 12.1231 34.4343 13.7953 32.1823C13.9671 31.9571 14.1446 31.8445 14.3278 31.8445C14.4767 31.8445 14.6027 31.8928 14.7058 31.9893C14.8089 32.0751 14.8604 32.1769 14.8604 32.2949C14.8604 32.5844 14.4767 33.1528 13.7094 34C12.9535 34.8472 11.9971 35.5496 10.8404 36.1072C9.68361 36.6756 8.54402 36.9598 7.42162 36.9598C6.07015 36.9598 4.81603 36.6273 3.65927 35.9625C2.5025 35.3083 1.60344 34.37 0.962063 33.1475C0.320688 31.9249 0 30.4718 0 28.7882C0 26.4397 0.652832 24.1019 1.95849 21.7748C3.2756 19.4477 4.91911 17.6515 6.88905 16.3861C8.85898 15.1206 10.7831 14.4879 12.6614 14.4879C13.3372 14.4879 14.0072 14.5576 14.6714 14.6971C14.9578 14.7614 16.1374 15.1314 18.2105 15.807C17.5576 17.6515 17.1911 19.555 17.111 21.5174Z" fill="black"/>
<path d="M52.1403 32.6273L51.854 34.1555C51.1668 34.2091 50.5655 34.2359 50.0501 34.2359C49.3057 34.2359 48.4085 34.1823 47.3586 34.0751C45.5643 33.8963 44.4285 33.807 43.9513 33.807C43.1496 33.807 41.9184 33.9231 40.2577 34.1555C40.8494 32.7614 41.3457 31.2958 41.7466 29.7587C42.0329 28.6685 42.3383 26.7918 42.6629 24.1287C40.4295 24.1108 36.9649 24.1555 32.2692 24.2627C27.4207 31.1975 23.8607 35.5496 21.5891 37.319C19.3367 39.1063 17.1892 40 15.1467 40C14.0778 40 13.2856 39.8034 12.7702 39.4102C12.2357 39.0349 11.9685 38.5433 11.9685 37.9357C11.9685 37.471 12.1212 37.0867 12.4266 36.7828C12.7321 36.479 13.1138 36.3271 13.5719 36.3271C13.8392 36.3271 14.2019 36.3718 14.66 36.4611C15.8053 36.7113 16.5688 36.8365 16.9506 36.8365C18.2295 36.8365 19.6421 36.1573 21.1883 34.7989C23.7079 32.5827 27.4302 27.9357 32.3551 20.8579C37.9289 12.8508 42.4433 7.02413 45.8984 3.37802C41.1835 3.77122 38.2439 4.14656 37.0795 4.50402C35.476 4.9866 34.2734 5.70152 33.4717 6.64879C32.67 7.59607 32.2692 8.56122 32.2692 9.54424C32.2692 9.86595 32.3932 10.3217 32.6414 10.9115C32.9086 11.5728 33.0422 12.0554 33.0422 12.3593C33.0422 12.7525 32.88 13.101 32.5555 13.4048C32.231 13.7087 31.8397 13.8606 31.3815 13.8606C30.7325 13.8606 30.2076 13.6372 29.8067 13.1903C29.425 12.7256 29.2341 12.0375 29.2341 11.126C29.2341 9.83914 29.5872 8.59696 30.2935 7.39946C31.0189 6.18409 32.0496 5.17426 33.3858 4.36997C34.722 3.54781 36.3923 2.92225 38.3966 2.4933C39.4273 2.26095 41.2408 2.05541 43.8368 1.87668C46.0892 1.69794 47.5018 1.52815 48.0745 1.36729C48.9716 1.13494 49.8306 0.679178 50.6514 0C50.0787 2.19839 49.6683 4.11975 49.4202 5.76408L47.1868 21.2601L45.8984 32.3592C47.3109 32.6988 48.5803 32.8686 49.7065 32.8686C50.451 32.8686 51.2622 32.7882 52.1403 32.6273ZM42.9205 22.1448C43.8368 14.8883 44.753 9.58892 45.6693 6.24665C43.2451 9.24933 41.7466 11.1439 41.1739 11.9303L33.8153 22.1448C35.3997 22.1984 37.6617 22.2252 40.6013 22.2252C41.3267 22.2252 42.0997 22.1984 42.9205 22.1448Z" fill="black"/>
<path d="M63.9714 24.6059L61.6693 33.1475C62.219 33.2225 62.66 33.2601 62.9921 33.2601C63.4961 33.2601 64.1203 33.1796 64.8647 33.0188L64.6929 33.807C63.9255 33.9571 63.33 34.0322 62.9062 34.0322C62.4596 34.0322 61.801 33.9946 60.9306 33.9196C60.1632 33.8445 59.5276 33.807 59.0236 33.807C58.1074 33.807 57.048 33.9303 55.8454 34.1769L56.1031 33.2761C57.3629 32.9759 58.1818 32.681 58.5598 32.3914C59.1324 31.9303 59.5734 31.1206 59.8826 29.9625L62.2878 20.9705C62.5855 19.8231 62.7344 19.1475 62.7344 18.9437C62.7344 18.7507 62.66 18.6059 62.5111 18.5094C62.3737 18.4129 62.0931 18.37 61.6693 18.3807L61.8926 17.6086C63.0494 17.5979 64.4352 17.3995 66.0501 17.0134C65.9127 17.4209 65.7352 18.0215 65.5175 18.815L64.2291 23.5603C64.7788 23.6676 65.2427 23.7212 65.6206 23.7212C67.0523 23.7212 68.2777 23.2547 69.2971 22.3217C70.3164 21.378 70.8261 20.2627 70.8261 18.9759C70.8261 17.9786 70.4138 17.1582 69.5891 16.5147C68.776 15.8713 67.665 15.5496 66.2563 15.5496C64.4581 15.5496 62.7001 15.9571 60.9821 16.7721C59.2641 17.5871 57.9757 18.6005 57.1167 19.8123C56.2577 21.0134 55.8282 22.2735 55.8282 23.5925C55.8282 24.5898 56.2692 25.4477 57.1511 26.1662C57.5977 26.5201 57.8726 26.7775 57.9757 26.9383C58.0787 27.0992 58.1303 27.2708 58.1303 27.4531C58.1303 27.6783 58.0387 27.8767 57.8554 28.0483C57.6836 28.2091 57.4717 28.2895 57.2198 28.2895C56.6013 28.2895 56.0515 27.9517 55.5705 27.2761C54.952 26.3968 54.6428 25.3137 54.6428 24.0268C54.6428 22.3753 55.1296 20.8365 56.1031 19.4102C57.0766 17.9839 58.5483 16.8043 60.5183 15.8713C62.4997 14.9383 64.5841 14.4718 66.7717 14.4718C68.8103 14.4718 70.4882 14.8311 71.8053 15.5496C73.1224 16.2681 73.781 17.3298 73.781 18.7346C73.781 20.0536 73.1739 21.2815 71.9599 22.4182C70.7573 23.555 69.0966 24.2842 66.9778 24.6059C67.5047 25.5925 67.8425 26.2574 67.9914 26.6005C68.2319 27.1796 68.5984 28.1555 69.0909 29.5282C70.2477 32.756 71.4445 35.0295 72.6815 36.3485C73.5977 37.3137 74.5884 37.7962 75.6535 37.7962C76.753 37.7962 77.4574 37.3298 77.7667 36.3968C77.9499 35.807 78.1217 35.4424 78.282 35.3029C78.4996 35.1099 78.7459 35.0134 79.0208 35.0134C79.2956 35.0134 79.5247 35.1046 79.7079 35.2869C79.9026 35.4692 80 35.689 80 35.9464C80 36.6113 79.6106 37.244 78.8318 37.8445C78.053 38.445 77.0508 38.7453 75.8253 38.7453C74.7144 38.7453 73.6493 38.4933 72.6299 37.9893C71.6221 37.4853 70.6371 36.6595 69.675 35.5121C68.7244 34.3646 67.8941 32.9866 67.184 31.378C66.8289 30.5737 66.3078 29.0992 65.6206 26.9544C65.2083 25.6461 64.9506 24.8633 64.8475 24.6059L64.4181 24.5737C64.315 24.5737 64.1661 24.5844 63.9714 24.6059Z" fill="black"/>
</svg>
